<svg width="65" height="58" viewBox="0 0 65 58" fill="none" xmlns="http://www.w3.org/2000/svg">
<path d="M46.3876 9.22281C46.3776 9.59281 46.1776 9.95281 45.8176 10.1728L45.7276 10.2228L39.6676 13.7428L39.3976 13.9028L38.2076 14.5928L33.3876 17.4028C32.5776 17.8728 31.5776 17.8728 30.7576 17.4028L25.9476 14.5928L25.0176 14.0628L24.4776 13.7428L18.4276 10.2228L18.3376 10.1728C18.0676 10.0128 17.8876 9.77281 17.8076 9.50281C17.6576 9.02281 17.8376 8.44281 18.3376 8.15281L22.9276 5.48281L24.1176 4.79281L30.1376 1.29281L30.7576 0.922812C31.5776 0.452812 32.5776 0.452812 33.3876 0.922812L33.9576 1.26281L40.0276 4.79281L40.9576 5.33281L45.8176 8.15281C46.2276 8.39281 46.4176 8.81281 46.3876 9.22281Z" fill="#E8E8E9" fill-opacity="0.1"/>
<path d="M63.578 37.8609C63.558 38.2309 63.358 38.5909 62.998 38.8009L62.908 38.8609L56.578 42.5409L55.388 43.2309L50.568 46.0309C49.758 46.5109 48.758 46.5109 47.948 46.0309L43.128 43.2309L42.198 42.6909L41.658 42.3809L45.728 40.0109L45.818 39.9509C46.178 39.7409 46.378 39.3809 46.388 39.0109C46.418 38.6009 46.228 38.1809 45.818 37.9409L40.958 35.1109L40.028 34.5709L39.688 34.3709L40.118 34.1209L41.298 33.4209L41.648 33.2109H41.658L42.198 33.5309L43.128 34.0709L47.948 36.8709C48.758 37.3409 49.758 37.3409 50.568 36.8709L55.388 34.0709L56.578 33.3709L56.858 33.2109L57.218 33.4209L58.138 33.9609L62.998 36.7909C63.408 37.0309 63.598 37.4509 63.578 37.8609Z" fill="#E8E8E9" fill-opacity="0.1"/>
<path d="M24.4679 34.3609L24.1179 34.5709L22.9279 35.2709L18.3379 37.9409C17.8379 38.2309 17.6579 38.8009 17.8079 39.2909C17.8879 39.5509 18.0679 39.7909 18.3379 39.9509L18.4279 40.0109L22.4979 42.3809L22.2179 42.5409L21.0279 43.2309L16.2079 46.0309C15.3979 46.5109 14.3879 46.5109 13.5779 46.0309L8.75791 43.2309L7.83791 42.6909L1.24791 38.8609L1.15791 38.8009C0.887915 38.6509 0.707915 38.4109 0.627915 38.1409C0.477915 37.6509 0.657915 37.0809 1.15791 36.7909L5.74791 34.1209L6.93791 33.4209L7.29791 33.2109L7.83791 33.5309L8.75791 34.0709L13.5779 36.8709C14.3879 37.3409 15.3979 37.3409 16.2079 36.8709L21.0279 34.0709L22.2179 33.3709L22.4879 33.2109H22.4979L24.4679 34.3609Z" fill="#E8E8E9" fill-opacity="0.1"/>
<path d="M63.2878 30.1325C63.7978 29.8425 64.1178 29.3125 64.1478 28.7325C64.1778 28.0625 63.8478 27.4525 63.2878 27.1325L57.9978 24.0525L63.1878 21.0325L63.2978 20.9725C63.7978 20.6625 64.1178 20.1325 64.1478 19.5625C64.1778 18.9125 63.8478 18.3025 63.2878 17.9625L51.4278 11.0625L50.8578 10.7325C49.8678 10.1625 48.6478 10.1625 47.6678 10.7325L41.6478 14.2325L40.8078 13.7425L46.0078 10.7225L46.1178 10.6625C46.6278 10.3525 46.9378 9.8225 46.9578 9.2525C47.0078 8.6025 46.6778 7.9925 46.1078 7.6525L34.2478 0.7725L33.6778 0.4225C32.6978 -0.1375 31.4678 -0.1475 30.4678 0.4325L18.0478 7.6525C17.3578 8.0625 17.0178 8.9125 17.2578 9.6625C17.3778 10.0825 17.6578 10.4325 18.0578 10.6725L23.3278 13.7425L22.5078 14.2225L16.4978 10.7325C15.5078 10.1625 14.2778 10.1625 13.2878 10.7325L0.867767 17.9625C0.167767 18.3725 -0.162233 19.2025 0.0777674 19.9725C0.197767 20.3925 0.477767 20.7425 0.877767 20.9825L6.14777 24.0525L0.867767 27.1325C0.167767 27.5425 -0.162233 28.3725 0.0777674 29.1525C0.207767 29.5625 0.487767 29.9125 0.877767 30.1425L6.15777 33.2125L0.867767 36.2925C0.167767 36.7025 -0.162233 37.5325 0.0777674 38.3025C0.207767 38.7325 0.487767 39.0825 0.837767 39.2725L13.2878 46.5225C13.7778 46.8225 14.3378 46.9625 14.8978 46.9625C15.4578 46.9625 15.9978 46.8225 16.4978 46.5325L22.5078 43.0425L23.3478 43.5325L18.0478 46.6025C17.3578 47.0125 17.0178 47.8625 17.2578 48.6125C17.3778 49.0325 17.6578 49.3825 18.0578 49.6225L30.4678 56.8525C30.9678 57.1325 31.5278 57.2725 32.0778 57.2725C32.6278 57.2725 33.1878 57.1325 33.6778 56.8425L46.0078 49.6725L46.1178 49.6125C46.6278 49.3025 46.9378 48.7725 46.9578 48.2025C47.0078 47.5525 46.6778 46.9425 46.1078 46.6025L40.8078 43.5325L41.6578 43.0425L47.6578 46.5225C48.1478 46.8225 48.7078 46.9625 49.2578 46.9625C49.8078 46.9625 50.3678 46.8225 50.8578 46.5325L63.2278 39.3425L63.2878 39.2925C63.7978 39.0025 64.1178 38.4725 64.1478 37.8925C64.1778 37.2425 63.8478 36.6325 63.2878 36.2925L57.9978 33.2125L63.1778 30.1925L63.2878 30.1325ZM47.5978 12.0925L48.2378 11.7325C48.8678 11.3625 49.6478 11.3625 50.2878 11.7325L62.7078 18.9525C62.9078 19.0725 63.0178 19.2725 63.0078 19.5025C62.9978 19.7025 62.8878 19.8825 62.7178 19.9825L56.8578 23.3925L50.2778 27.2125C49.6478 27.5825 48.8678 27.5825 48.2378 27.2225L43.4178 24.4025L42.7778 24.0425L42.4578 23.8525L41.8178 23.4925H41.7978L40.8678 22.9325H40.8578L35.8878 20.0325L35.8078 19.9925C35.8078 19.9925 35.7778 19.9725 35.7678 19.9625C35.7078 19.9225 35.6678 19.8825 35.6278 19.8225C35.5878 19.7725 35.5578 19.7125 35.5378 19.6425C35.4678 19.4325 35.5278 19.1225 35.8078 18.9625L40.4578 16.2525L47.5978 12.0925ZM26.4478 24.7125L31.0478 22.0425C31.6878 21.6725 32.4678 21.6725 33.0978 22.0525L37.6978 24.7225L38.5478 25.2125L39.6778 25.8725L45.5378 29.2825C45.8078 29.4325 45.8278 29.7025 45.8178 29.8125V29.8325C45.8078 29.9825 45.7378 30.1825 45.5378 30.2925L41.5078 32.6425H41.4978L40.5278 33.2125L39.6578 33.7225L33.0978 37.5325C32.4678 37.8925 31.6778 37.8925 31.0478 37.5325L26.2278 34.7125L24.6278 33.7925H24.6178L23.6178 33.2125L22.7878 32.7225L22.6778 32.6625L22.6378 32.6425L18.7078 30.3425L18.6278 30.3025C18.4978 30.2225 18.3978 30.1025 18.3578 29.9625C18.2878 29.7625 18.3378 29.4825 18.5778 29.3125C18.5878 29.2925 18.6078 29.2825 18.6278 29.2725L19.6978 28.6525L23.4078 26.4925L26.4478 24.7125ZM23.6278 24.0525L24.4878 23.5625H24.4978L25.3178 24.0525L24.4778 24.5425H24.4678L23.6378 24.0625H23.6278V24.0525ZM29.7478 19.1725C29.7278 19.0525 29.6978 18.9225 29.6478 18.8125C29.6078 18.7025 29.5578 18.6025 29.4878 18.5025C29.4878 18.5025 29.4878 18.4825 29.4678 18.4725C29.4178 18.3925 29.3578 18.3225 29.2878 18.2525C29.2578 18.2125 29.2178 18.1825 29.1778 18.1425C29.0978 18.0825 29.0178 18.0125 28.9278 17.9625L23.6478 14.8925L24.4678 14.4125H24.4778L30.4678 17.9025C30.9678 18.1825 31.5278 18.3225 32.0778 18.3225C32.2178 18.3225 32.3478 18.3125 32.4778 18.2925C32.5478 18.2925 32.6078 18.2825 32.6778 18.2625C32.7478 18.2525 32.8178 18.2325 32.8878 18.2125C33.0278 18.1825 33.1578 18.1325 33.2878 18.0825C33.4178 18.0325 33.5478 17.9625 33.6678 17.8925L39.6678 14.4025L40.5078 14.8925L35.2178 17.9625C35.1078 18.0225 35.0078 18.1025 34.9278 18.1825C34.8978 18.1825 34.8778 18.2225 34.8478 18.2525C34.7778 18.3225 34.7178 18.3925 34.6678 18.4725C34.5778 18.5925 34.5178 18.7225 34.4578 18.8625C34.4278 18.9625 34.3978 19.0625 34.3778 19.1625C34.3578 19.2625 34.3478 19.3425 34.3478 19.4425C34.3478 19.6225 34.3778 19.7925 34.4278 19.9725C34.5478 20.3925 34.8278 20.7425 35.2278 20.9825L38.5378 22.9025H38.5178L37.6878 23.4025L33.6678 21.0625C32.6878 20.4725 31.4578 20.4725 30.4578 21.0625L26.4378 23.4025L25.6078 22.9225H25.5978L26.2978 22.5125L27.7778 21.6525L28.8178 21.0425L28.9278 20.9825C29.4278 20.6725 29.7378 20.1625 29.7678 19.5725V19.4625C29.7678 19.3625 29.7578 19.2725 29.7378 19.1825L29.7478 19.1725ZM40.5078 24.0625L39.6778 24.5525L38.8278 24.0625L39.6678 23.5725L39.6778 23.5625L40.5078 24.0525H40.4978L40.5078 24.0625ZM18.7078 9.7225L18.6278 9.6825C18.4978 9.6025 18.3978 9.4825 18.3578 9.3325C18.2878 9.1125 18.3578 8.8025 18.6278 8.6425L30.4278 1.7825L31.0378 1.4225C31.3678 1.2325 31.7178 1.1425 32.0778 1.1425C32.4378 1.1425 32.7878 1.2325 33.0978 1.4125L45.5278 8.6425C45.7278 8.7625 45.8378 8.9625 45.8178 9.1825V9.2125C45.8078 9.3925 45.6978 9.5725 45.5378 9.6725L39.6678 13.0825L33.0978 16.9025C32.4678 17.2725 31.6778 17.2725 31.0478 16.9125L24.4778 13.0825L18.7078 9.7225ZM1.52777 20.0325L1.44777 19.9925C1.31777 19.9125 1.21777 19.7925 1.17777 19.6425C1.10777 19.4325 1.17777 19.1225 1.44777 18.9625L13.8678 11.7325C14.1778 11.5425 14.5378 11.4525 14.8878 11.4525C15.2378 11.4525 15.6078 11.5425 15.9178 11.7325L28.3478 18.9525C28.5378 19.0725 28.6478 19.2725 28.6378 19.5025C28.6278 19.6225 28.5778 19.8225 28.3778 19.9725C28.3778 19.9725 28.3678 19.9725 28.3578 19.9825L27.8178 20.2925L23.9978 22.5125L23.6978 22.6925L23.5578 22.7825L22.5978 23.3325L18.0478 25.9825L15.9178 27.2125C15.2878 27.5825 14.4978 27.5825 13.8678 27.2225L7.29777 23.3925L1.52777 20.0325ZM1.52777 29.1925L1.44777 29.1525C1.31777 29.0725 1.21777 28.9525 1.17777 28.8125C1.10777 28.6025 1.17777 28.2925 1.44777 28.1225L7.28777 24.7225L13.2778 28.2125C13.7778 28.4925 14.3278 28.6425 14.8778 28.6425C15.4278 28.6425 15.9878 28.4925 16.4878 28.2025L17.1978 27.7925L22.4878 24.7225H22.4978L23.3178 25.2025L21.2878 26.3925L18.5778 27.9825H18.5578L18.0378 28.2825C17.8778 28.3825 17.7278 28.4925 17.6178 28.6325H17.6078C17.5478 28.7125 17.4978 28.7825 17.4478 28.8525C17.4278 28.8725 17.4178 28.9025 17.3978 28.9325C17.3578 29.0125 17.3178 29.0925 17.2878 29.1725C17.2478 29.2725 17.2178 29.3625 17.1978 29.4625C17.1778 29.5825 17.1678 29.6825 17.1678 29.7925C17.1678 29.9625 17.1978 30.1325 17.2478 30.3025C17.3778 30.7125 17.6578 31.0625 18.0478 31.2925L21.3378 33.2125L15.9078 36.3725C15.2778 36.7425 14.4878 36.7425 13.8578 36.3725L9.03777 33.5825L7.28777 32.5525L1.51777 29.1925H1.52777ZM15.9178 45.5425C15.2878 45.9125 14.4978 45.9125 13.8678 45.5425L1.56777 38.3925L1.43777 38.3025C1.27777 38.2125 1.20777 38.0825 1.17777 37.9725C1.10777 37.7525 1.17777 37.4525 1.44777 37.2925L7.28777 33.8825L13.2778 37.3725C13.5278 37.5125 13.7878 37.6125 14.0578 37.6925C14.1778 37.7225 14.3078 37.7425 14.4278 37.7525C14.5078 37.7725 14.5778 37.7725 14.6478 37.7725C14.7278 37.7925 14.7978 37.7925 14.8778 37.7925C14.9078 37.7925 14.9378 37.7925 14.9678 37.7825C15.0878 37.7825 15.2178 37.7725 15.3378 37.7525C15.4578 37.7525 15.5878 37.7225 15.7078 37.6925C15.9778 37.6125 16.2378 37.5125 16.4878 37.3725L22.4778 33.8725H22.4878L23.3178 34.3625L18.0378 37.4525C17.3378 37.8525 17.0078 38.6825 17.2478 39.4625C17.3778 39.8725 17.6578 40.2225 18.0078 40.4325L21.3478 42.3825L15.9078 45.5425H15.9178ZM45.5278 47.5925C45.7278 47.7125 45.8378 47.9125 45.8178 48.1325V48.1625C45.8078 48.3425 45.6978 48.5225 45.5378 48.6225L33.0978 55.8525C32.4678 56.2225 31.6778 56.2225 31.0478 55.8625L18.7078 48.6725L18.6278 48.6325C18.4978 48.5525 18.3978 48.4325 18.3578 48.2825C18.2878 48.0625 18.3578 47.7525 18.6278 47.5925L23.2178 44.9225L24.4778 44.1925L30.4678 47.6725C30.9678 47.9725 31.5278 48.1125 32.0778 48.1125C32.6278 48.1125 33.1878 47.9725 33.6778 47.6725L39.6678 44.1925L45.5278 47.5925ZM40.5178 42.3825L39.6678 42.8725L33.0978 46.6925C32.4678 47.0625 31.6878 47.0625 31.0478 46.6925L24.4778 42.8825L23.6478 42.3925L18.7478 39.5425L18.6278 39.4725C18.4978 39.3925 18.3978 39.2725 18.3578 39.1325C18.2878 38.9125 18.3578 38.6125 18.6278 38.4525L24.4678 35.0325L30.4778 38.5325C30.9678 38.8125 31.5278 38.9525 32.0778 38.9525C32.6278 38.9525 33.1878 38.8125 33.6778 38.5325L39.6678 35.0325L45.5178 38.4525C45.7178 38.5625 45.8278 38.7625 45.8078 38.9825V39.0125C45.7978 39.1925 45.6978 39.3625 45.4878 39.4825L40.5078 42.3925L40.5178 42.3825ZM62.7078 37.2825C62.9078 37.4025 63.0178 37.6025 63.0078 37.8325C62.9978 38.0325 62.8878 38.2025 62.6778 38.3225L50.2778 45.5425C49.6478 45.9125 48.8678 45.9125 48.2378 45.5425L42.7978 42.3825L46.0478 40.4925L46.1078 40.4525C46.4278 40.2625 46.6678 39.9825 46.8178 39.6625C46.8678 39.5325 46.9078 39.4025 46.9378 39.2625C46.9478 39.1925 46.9578 39.1225 46.9578 39.0425C46.9978 38.5525 46.8178 38.0825 46.4678 37.7325C46.4178 37.6825 46.3578 37.6325 46.2978 37.5825C46.2378 37.5325 46.1778 37.4925 46.1078 37.4525L40.8178 34.3725L41.6578 33.8725L47.6578 37.3725C47.9078 37.5125 48.1678 37.6125 48.4378 37.6925C48.7078 37.7525 48.9778 37.7925 49.2578 37.7925C49.5378 37.7925 49.8078 37.7525 50.0778 37.6925C50.3478 37.6125 50.6078 37.5125 50.8578 37.3725L56.8578 33.8725L62.7078 37.2825ZM62.7178 29.1425L56.8578 32.5525L50.2778 36.3725C49.6478 36.7425 48.8678 36.7425 48.2378 36.3725L42.7878 33.2125L46.0078 31.3425L46.1078 31.2925C46.6178 30.9925 46.9378 30.4525 46.9578 29.8825C47.0078 29.2125 46.6778 28.6025 46.1078 28.2925L40.8178 25.2125L41.6478 24.7125L47.6578 28.2125C47.8978 28.3525 48.1578 28.4525 48.4278 28.5325H48.4378C48.5578 28.5625 48.6778 28.5825 48.8078 28.5925C48.8178 28.5925 48.8378 28.6025 48.8478 28.6025H48.8878C48.8878 28.6025 48.9478 28.6125 48.9778 28.6125H49.0278C49.0278 28.6125 49.0478 28.6125 49.0578 28.6125H49.1078C49.1078 28.6125 49.1578 28.6225 49.1878 28.6225H49.2578C49.6678 28.6225 50.0878 28.5425 50.4778 28.3825C50.6078 28.3325 50.7378 28.2625 50.8578 28.1925L56.8578 24.7025L62.7178 28.1225C62.9878 28.2725 63.0078 28.5525 63.0078 28.6625C62.9978 28.8625 62.8878 29.0325 62.7178 29.1325V29.1425Z" fill="#E8E8E9"/>
</svg>
