<svg width="22" height="22" viewBox="0 0 22 22" fill="none" xmlns="http://www.w3.org/2000/svg">
<path d="M20.3695 15.6582C19.514 14.7793 17.0824 13.1328 15.4886 13.1328C15.1195 13.1328 14.7972 13.2148 14.5336 13.3848C13.7543 13.8828 13.1332 14.2695 12.8343 14.2695C12.6703 14.2695 12.4945 14.123 12.1078 13.7891L12.0433 13.7305C10.9711 12.7988 10.7425 12.5586 10.3265 12.125L10.2211 12.0137C10.1449 11.9375 10.0804 11.8672 10.016 11.8027C9.6527 11.4277 9.38903 11.1582 8.45739 10.1035L8.41637 10.0566C7.97106 9.55273 7.67809 9.22461 7.66051 8.98438C7.64293 8.75 7.84801 8.36914 8.3695 7.66016C9.00231 6.80469 9.02575 5.75 8.44567 4.52539C7.98278 3.55859 7.22692 2.63281 6.55895 1.81836L6.50036 1.74805C5.92614 1.04492 5.25817 0.693359 4.51403 0.693359C3.68786 0.693359 3.00231 1.13867 2.63903 1.37305C2.60973 1.39062 2.58043 1.41406 2.55114 1.43164C1.73668 1.94727 1.14489 2.65625 0.922231 3.37695C0.588247 4.46094 0.365591 5.86719 1.9652 8.79102C3.34801 11.3223 4.60192 13.0215 6.59411 15.0664C8.46911 16.9883 9.30114 17.6094 11.1644 18.957C13.2386 20.457 15.2308 21.3184 16.6254 21.3184C17.9203 21.3184 18.9398 21.3184 20.3929 19.5664C21.9164 17.7266 21.2836 16.6016 20.3695 15.6582Z" fill="#00AEEF"/>
</svg>
