<svg xmlns="http://www.w3.org/2000/svg" xmlns:xlink="http://www.w3.org/1999/xlink" id="Layer_1" x="0px" y="0px" viewBox="0 0 3840 2160" style="enable-background:new 0 0 3840 2160;" xml:space="preserve"><style type="text/css">	.st0{fill:#161B28;}	.st1{fill:#153144;}</style><g>	<rect x="-55.15" y="1902.75" class="st0" width="3911.62" height="263.25"></rect>	<path class="st0" d="M-55.15,752.95v1267.89h1362.69v-165.27C1307.54,1855.58,459.39,1689.16-55.15,752.95z"></path>	<path class="st0" d="M3856.47,752.95v1267.89H2493.78v-165.27C2493.78,1855.58,3341.92,1689.16,3856.47,752.95z"></path>	<g>		<path class="st1" d="M3906.33,885.12l-28.15-19.48c-2.78-1.97-5.85-3.25-9.01-3.92c50.2-89.83,94.32-183.51,131.81-280.5h-144.51   v-20.28c-307.6,759.16-1052.01,1294.63-1921.51,1294.63c-897.27,0-1661.33-570.24-1949.63-1368.07v93.72h-116.34   C-85.69,698.45-30.7,810.86,33.02,917.47c-0.04,0.03-0.08,0.05-0.11,0.07L4.75,937.02c-11.23,7.93-13.71,23.55-5.51,34.57   l97.54,131.09c6.96,9.36,6.35,22.33-1.47,30.99l-7.64,8.45c-8.23,9.11-8.43,22.91-0.47,32.25l170.12,199.67   c7.66,8.99,20.65,11.22,30.87,5.3l19.04-11.03c9.69-5.61,21.96-3.93,29.77,4.09l80.13,82.24c8.95,9.19,23.48,9.9,33.29,1.62   l17.25-14.86c22.8,20.19,46.05,39.9,69.67,59.15l-16.65,21.81c-8.23,11-5.78,26.63,5.42,34.59l133.23,94.61   c9.51,6.75,12.93,19.29,8.16,29.93l-4.66,10.4c-5.02,11.2-0.95,24.39,9.5,30.82l223.41,137.45c10.06,6.19,23.11,4.3,31-4.48   l14.71-16.36c7.49-8.33,19.67-10.51,29.58-5.29l101.59,53.51c11.35,5.98,25.39,2.17,32.16-8.73l16.05-26.41   c1.62-2.61,2.66-5.41,3.21-8.25c251.11,98.87,524.65,153.19,810.87,153.19c307.94,0,601.18-62.89,867.62-176.48l3.68,6.06   c6.77,10.9,20.81,14.7,32.16,8.73l101.59-53.51c9.91-5.22,22.1-3.04,29.58,5.29l14.71,16.36c7.9,8.78,20.94,10.67,31,4.48   l223.41-137.45c10.46-6.43,14.52-19.62,9.5-30.82l-4.65-10.4c-4.77-10.65-1.35-23.18,8.16-29.93l133.23-94.61   c11.21-7.96,13.66-23.58,5.42-34.59l-8.56-11.21c23.66-20.44,46.87-41.4,69.64-62.81l9.19,7.92c9.8,8.27,24.33,7.57,33.29-1.62   l80.13-82.24c7.82-8.02,20.08-9.71,29.77-4.09l19.04,11.03c10.22,5.92,23.21,3.69,30.87-5.3l170.11-199.67   c7.96-9.34,7.76-23.14-0.47-32.25l-7.64-8.45c-7.82-8.66-8.44-21.63-1.47-30.99l97.54-131.09   C3920.04,908.67,3917.55,893.05,3906.33,885.12z"></path>	</g></g></svg>